<svg width="149" height="67" viewBox="0 0 149 67" fill="none" xmlns="http://www.w3.org/2000/svg">
<path d="M18.44 2H27.88V30H18.44V2ZM9.72 30H0.28V2H9.72V30ZM19.08 19.68H9.08V11.92H19.08V19.68ZM44.2284 30.4C41.5618 30.4 39.2284 29.9067 37.2284 28.92C35.2551 27.9333 33.7218 26.5867 32.6284 24.88C31.5351 23.1467 30.9884 21.2 30.9884 19.04C30.9884 16.8267 31.5218 14.8667 32.5884 13.16C33.6818 11.4533 35.1618 10.12 37.0284 9.16C38.9218 8.2 41.0418 7.72 43.3884 7.72C45.5484 7.72 47.5351 8.14667 49.3484 9C51.1884 9.85333 52.6551 11.12 53.7484 12.8C54.8684 14.48 55.4284 16.56 55.4284 19.04C55.4284 19.36 55.4151 19.72 55.3884 20.12C55.3618 20.4933 55.3351 20.84 55.3084 21.16H38.4684V16.8H50.5084L47.1084 17.96C47.1084 17.1067 46.9484 16.3867 46.6284 15.8C46.3351 15.1867 45.9218 14.72 45.3884 14.4C44.8551 14.0533 44.2151 13.88 43.4684 13.88C42.7218 13.88 42.0684 14.0533 41.5084 14.4C40.9751 14.72 40.5618 15.1867 40.2684 15.8C39.9751 16.3867 39.8284 17.1067 39.8284 17.96V19.32C39.8284 20.2533 40.0151 21.0533 40.3884 21.72C40.7618 22.3867 41.2951 22.8933 41.9884 23.24C42.6818 23.56 43.5218 23.72 44.5084 23.72C45.5218 23.72 46.3484 23.5867 46.9884 23.32C47.6551 23.0533 48.3484 22.6533 49.0684 22.12L53.7884 26.88C52.7218 28.0267 51.4018 28.9067 49.8284 29.52C48.2818 30.1067 46.4151 30.4 44.2284 30.4ZM58.2813 30V0.319998H67.3213V30H58.2813ZM85.9281 30.4C84.0348 30.4 82.4615 30 81.2081 29.2C79.9815 28.3733 79.0748 27.1333 78.4881 25.48C77.9015 23.8 77.6081 21.6667 77.6081 19.08C77.6081 16.44 77.8748 14.2933 78.4081 12.64C78.9681 10.96 79.8615 9.72 81.0881 8.92C82.3148 8.12 83.9281 7.72 85.9281 7.72C87.8481 7.72 89.6081 8.18667 91.2081 9.12C92.8081 10.0267 94.0881 11.3333 95.0481 13.04C96.0081 14.72 96.4881 16.7333 96.4881 19.08C96.4881 21.4267 96.0081 23.4533 95.0481 25.16C94.0881 26.84 92.8081 28.1333 91.2081 29.04C89.6081 29.9467 87.8481 30.4 85.9281 30.4ZM71.3281 37.76V8.12H79.9281V11.08L79.9681 19.08L80.3681 27.08V37.76H71.3281ZM83.7681 23.36C84.4348 23.36 85.0348 23.2 85.5681 22.88C86.1015 22.56 86.5281 22.08 86.8481 21.44C87.1681 20.8 87.3281 20.0133 87.3281 19.08C87.3281 18.12 87.1681 17.32 86.8481 16.68C86.5281 16.04 86.1015 15.56 85.5681 15.24C85.0348 14.92 84.4348 14.76 83.7681 14.76C83.1015 14.76 82.5015 14.92 81.9681 15.24C81.4348 15.56 81.0081 16.04 80.6881 16.68C80.3681 17.32 80.2081 18.12 80.2081 19.08C80.2081 20.0133 80.3681 20.8 80.6881 21.44C81.0081 22.08 81.4348 22.56 81.9681 22.88C82.5015 23.2 83.1015 23.36 83.7681 23.36ZM111.416 30.4C108.749 30.4 106.416 29.9067 104.416 28.92C102.443 27.9333 100.909 26.5867 99.8159 24.88C98.7226 23.1467 98.1759 21.2 98.1759 19.04C98.1759 16.8267 98.7093 14.8667 99.7759 13.16C100.869 11.4533 102.349 10.12 104.216 9.16C106.109 8.2 108.229 7.72 110.576 7.72C112.736 7.72 114.723 8.14667 116.536 9C118.376 9.85333 119.843 11.12 120.936 12.8C122.056 14.48 122.616 16.56 122.616 19.04C122.616 19.36 122.603 19.72 122.576 20.12C122.549 20.4933 122.523 20.84 122.496 21.16H105.656V16.8H117.696L114.296 17.96C114.296 17.1067 114.136 16.3867 113.816 15.8C113.523 15.1867 113.109 14.72 112.576 14.4C112.043 14.0533 111.403 13.88 110.656 13.88C109.909 13.88 109.256 14.0533 108.696 14.4C108.163 14.72 107.749 15.1867 107.456 15.8C107.163 16.3867 107.016 17.1067 107.016 17.96V19.32C107.016 20.2533 107.203 21.0533 107.576 21.72C107.949 22.3867 108.483 22.8933 109.176 23.24C109.869 23.56 110.709 23.72 111.696 23.72C112.709 23.72 113.536 23.5867 114.176 23.32C114.843 23.0533 115.536 22.6533 116.256 22.12L120.976 26.88C119.909 28.0267 118.589 28.9067 117.016 29.52C115.469 30.1067 113.603 30.4 111.416 30.4ZM137.549 30.4C134.882 30.4 132.549 29.9067 130.549 28.92C128.575 27.9333 127.042 26.5867 125.949 24.88C124.855 23.1467 124.309 21.2 124.309 19.04C124.309 16.8267 124.842 14.8667 125.909 13.16C127.002 11.4533 128.482 10.12 130.349 9.16C132.242 8.2 134.362 7.72 136.709 7.72C138.869 7.72 140.855 8.14667 142.669 9C144.509 9.85333 145.975 11.12 147.069 12.8C148.189 14.48 148.749 16.56 148.749 19.04C148.749 19.36 148.735 19.72 148.709 20.12C148.682 20.4933 148.655 20.84 148.629 21.16H131.789V16.8H143.829L140.429 17.96C140.429 17.1067 140.269 16.3867 139.949 15.8C139.655 15.1867 139.242 14.72 138.709 14.4C138.175 14.0533 137.535 13.88 136.789 13.88C136.042 13.88 135.389 14.0533 134.829 14.4C134.295 14.72 133.882 15.1867 133.589 15.8C133.295 16.3867 133.149 17.1067 133.149 17.96V19.32C133.149 20.2533 133.335 21.0533 133.709 21.72C134.082 22.3867 134.615 22.8933 135.309 23.24C136.002 23.56 136.842 23.72 137.829 23.72C138.842 23.72 139.669 23.5867 140.309 23.32C140.975 23.0533 141.669 22.6533 142.389 22.12L147.109 26.88C146.042 28.0267 144.722 28.9067 143.149 29.52C141.602 30.1067 139.735 30.4 137.549 30.4Z" fill="#2F95F0"/>
<path d="M18.44 38H27.88V66H18.44V38ZM9.72 66H0.28V38H9.72V66ZM19.08 55.68H9.08V47.92H19.08V55.68ZM45.3884 66V62.12L44.7484 61.08V53.72C44.7484 52.6533 44.4151 51.84 43.7484 51.28C43.1084 50.72 42.0551 50.44 40.5884 50.44C39.6018 50.44 38.6018 50.6 37.5884 50.92C36.5751 51.2133 35.7084 51.6267 34.9884 52.16L32.1084 46.2C33.3884 45.4 34.9218 44.7867 36.7084 44.36C38.4951 43.9333 40.2418 43.72 41.9484 43.72C45.7084 43.72 48.6151 44.56 50.6684 46.24C52.7484 47.92 53.7884 50.5867 53.7884 54.24V66H45.3884ZM39.1884 66.4C37.4018 66.4 35.9084 66.0933 34.7084 65.48C33.5084 64.8667 32.6018 64.0533 31.9884 63.04C31.3751 62 31.0684 60.8533 31.0684 59.6C31.0684 58.1867 31.4284 56.9867 32.1484 56C32.8684 55.0133 33.9618 54.2667 35.4284 53.76C36.9218 53.2533 38.8018 53 41.0684 53H45.6284V57.36H42.5084C41.5484 57.36 40.8418 57.52 40.3884 57.84C39.9618 58.1333 39.7484 58.5867 39.7484 59.2C39.7484 59.7067 39.9351 60.1333 40.3084 60.48C40.7084 60.8 41.2418 60.96 41.9084 60.96C42.5218 60.96 43.0818 60.8 43.5884 60.48C44.1218 60.1333 44.5084 59.6 44.7484 58.88L45.9084 61.56C45.5618 63.1867 44.8284 64.4 43.7084 65.2C42.5884 66 41.0818 66.4 39.1884 66.4ZM72.8953 43.72C74.5753 43.72 76.0953 44.0667 77.4553 44.76C78.8153 45.4267 79.882 46.48 80.6553 47.92C81.4553 49.36 81.8553 51.2267 81.8553 53.52V66H72.8153V55.08C72.8153 53.72 72.5753 52.76 72.0953 52.2C71.6153 51.6133 70.962 51.32 70.1353 51.32C69.522 51.32 68.9486 51.4667 68.4153 51.76C67.9086 52.0267 67.4953 52.48 67.1753 53.12C66.882 53.76 66.7353 54.6267 66.7353 55.72V66H57.6953V44.12H66.2953V50.52L64.5753 48.68C65.4286 47.0267 66.5753 45.7867 68.0153 44.96C69.482 44.1333 71.1086 43.72 72.8953 43.72ZM95.7719 66.4C93.8785 66.4 92.1185 65.9467 90.4919 65.04C88.8919 64.1067 87.6119 62.8 86.6519 61.12C85.6919 59.4133 85.2119 57.3867 85.2119 55.04C85.2119 52.6933 85.6919 50.68 86.6519 49C87.6119 47.2933 88.8919 45.9867 90.4919 45.08C92.1185 44.1733 93.8785 43.72 95.7719 43.72C97.6919 43.72 99.2652 44.1333 100.492 44.96C101.719 45.76 102.625 47 103.212 48.68C103.799 50.3333 104.092 52.4533 104.092 55.04C104.092 57.6533 103.812 59.8 103.252 61.48C102.719 63.16 101.839 64.4 100.612 65.2C99.4119 66 97.7985 66.4 95.7719 66.4ZM97.9319 59.36C98.5985 59.36 99.1985 59.2 99.7319 58.88C100.265 58.56 100.692 58.08 101.012 57.44C101.332 56.7733 101.492 55.9733 101.492 55.04C101.492 54.08 101.332 53.2933 101.012 52.68C100.692 52.04 100.265 51.56 99.7319 51.24C99.1985 50.92 98.5985 50.76 97.9319 50.76C97.2652 50.76 96.6652 50.92 96.1319 51.24C95.5985 51.56 95.1719 52.04 94.8519 52.68C94.5319 53.2933 94.3719 54.08 94.3719 55.04C94.3719 55.9733 94.5319 56.7733 94.8519 57.44C95.1719 58.08 95.5985 58.56 96.1319 58.88C96.6652 59.2 97.2652 59.36 97.9319 59.36ZM101.772 66V63.04L101.732 55.04L101.332 47.04V36.32H110.372V66H101.772ZM122.935 66.4C121.068 66.4 119.228 66.2 117.415 65.8C115.602 65.4 114.135 64.88 113.015 64.24L115.495 58.28C116.535 58.8933 117.735 59.3733 119.095 59.72C120.482 60.0667 121.828 60.24 123.135 60.24C124.228 60.24 124.962 60.1467 125.335 59.96C125.735 59.7733 125.935 59.52 125.935 59.2C125.935 58.88 125.708 58.6533 125.255 58.52C124.802 58.36 124.202 58.24 123.455 58.16C122.708 58.08 121.882 57.9867 120.975 57.88C120.095 57.7467 119.202 57.56 118.295 57.32C117.388 57.08 116.562 56.72 115.815 56.24C115.068 55.76 114.468 55.12 114.015 54.32C113.562 53.4933 113.335 52.4533 113.335 51.2C113.335 49.8133 113.748 48.56 114.575 47.44C115.428 46.32 116.682 45.4267 118.335 44.76C120.015 44.0667 122.082 43.72 124.535 43.72C126.135 43.72 127.735 43.8667 129.335 44.16C130.935 44.4533 132.308 44.9067 133.455 45.52L130.975 51.48C129.855 50.8667 128.748 50.4533 127.655 50.24C126.588 50 125.588 49.88 124.655 49.88C123.508 49.88 122.722 49.9867 122.295 50.2C121.895 50.4133 121.695 50.6533 121.695 50.92C121.695 51.24 121.922 51.48 122.375 51.64C122.828 51.8 123.428 51.92 124.175 52C124.922 52.08 125.735 52.1867 126.615 52.32C127.522 52.4267 128.415 52.6133 129.295 52.88C130.202 53.12 131.028 53.48 131.775 53.96C132.522 54.44 133.122 55.0933 133.575 55.92C134.028 56.72 134.255 57.7467 134.255 59C134.255 60.3067 133.842 61.5333 133.015 62.68C132.188 63.8 130.935 64.7067 129.255 65.4C127.575 66.0667 125.468 66.4 122.935 66.4Z" fill="#38B6FF"/>
</svg>
